<?xml version="1.0" encoding="UTF-8"?>
<svg width="28px" height="29px" viewBox="0 0 28 29" version="1.1" 
    xmlns="http://www.w3.org/2000/svg" 
    xmlns:xlink="http://www.w3.org/1999/xlink">
    <g id="Page-1" stroke="none" stroke-width="1" fill="none" fill-rule="evenodd">
        <g id="Sign-up_1" transform="translate(-347.000000, -114.000000)" fill="#3B79CC">
            <g id="icon/buzzsumo-icon" transform="translate(347.000000, 114.000000)">
                <path d="M10.7102361,20.3030927 C10.7102361,21.5554627 9.83353244,22.6152043 8.45860091,22.6152043 C7.12395636,22.6152043 6.16778758,21.5361807 6.16778758,20.2645289 L6.16778758,20.2259651 C6.16778758,18.9735952 7.04430643,17.9136626 8.41905315,17.9136626 C9.75388251,17.9136626 10.7102361,18.9926862 10.7102361,20.2645289 L10.7102361,20.3030927 Z M12.6510332,20.3361202 L12.6510332,20.2647198 C12.6510332,17.9058353 10.8776673,15.904907 8.40242091,15.904907 C5.85269911,15.904907 4.22680562,17.8705169 4.22680562,20.1929376 L4.22680562,20.2647198 C4.22680562,22.6232226 6.00035641,24.6239599 8.47560275,24.6239599 C11.0253246,24.6239599 12.6510332,22.6585409 12.6510332,20.3361202 Z M0,20.3263838 L0,20.2647198 C0,15.5110596 3.55671131,11.5294396 8.46691703,11.5294396 C13.3495872,11.5294396 16.8780237,15.4492048 16.8780237,20.2026741 L16.8780237,20.2647198 C16.8780237,25.0178073 13.3213124,29 8.41092184,29 C3.5282517,29 0,25.0796622 0,20.3263838 Z M10.5664596,-7.10542736e-15 C18.7652281,-7.10542736e-15 28,7.2937184 28,17.9069807 C28,19.0194136 27.1286556,19.9214636 26.0538436,19.9214636 C26.0486691,19.9214636 26.0433098,19.9214636 26.0379505,19.9214636 C25.3308957,19.9155453 24.7620732,19.3235333 24.6999795,18.596166 C24.0138074,10.5710712 18.0908833,4.10151148 9.91096474,3.4178626 C9.20354029,3.35868048 8.62769531,2.76857752 8.62030321,2.03548294 C8.62030321,2.02841926 8.62030321,2.02135559 8.62030321,2.01448283 C8.62030321,0.902049979 9.49164758,-7.10542736e-15 10.5664596,-7.10542736e-15 Z M10.4690687,5.77999263 C15.9246269,5.77999263 22.4171127,10.749763 22.4171127,18.0577997 C22.4171127,19.1704234 21.5455835,20.0722825 20.4707715,20.0722825 C20.465597,20.0722825 20.4604225,20.0722825 20.4550633,20.0722825 C19.7367355,20.0663643 19.1361269,19.4856159 19.0470521,18.7490849 C18.4505092,13.8132966 14.8078647,9.86164946 9.78936461,9.27021013 C9.0702976,9.18544607 8.52586907,8.55887929 8.52291223,7.81108463 L8.52291223,7.79447546 C8.52291223,6.6818517 9.3944414,5.77999263 10.4690687,5.77999263 Z"></path>
            </g>
        </g>
    </g>
</svg>